:FULLY-SPECIFIED
:FORCE-ALL-JOINTS-BE-3DOF
:DEGREES
2141
root -2.45528 15.2501 0.90444 -176.477 6.97465 -172.184
lfemur -53.4436 18.7931 -22.3853
ltibia 41.1934 -0 0
lfoot 10.7365 18.6675 -0.189133
ltoes 4.89666 -0 0
rfemur 3.15211 -2.47674 27.5376
rtibia 43.2131 -0 0
rfoot -21.1117 5.30469 -0.0360045
rtoes -30.007 0 0
lowerback 9.09608 1.22512 1.37563
upperback -2.30317 2.23032 3.58591
thorax -7.56165 1.17821 2.68669
lowerneck -5.61321 -1.52063 -5.96893
upperneck 7.82852 -1.83984 3.67729
head 3.61302 -0.942963 2.14439
lclavicle -2.90817e-14 -5.09534e-14 -1.32155e-30
lhumerus 49.5731 -5.9971 99.6965
lradius 19.4126 -0 0
lwrist -54.0324 0 0
lhand -34.8207 45.3331 -0.0393032
lfingers 7.12502 -0 0
lthumb -7.97137 75.1527 -0.037058
rclavicle -2.90817e-14 -5.09534e-14 -1.32155e-30
rhumerus -50.98 21.6557 -97.5746
rradius 108.454 -0 0
rwrist -88.4756 0 0
rhand -7.31269 -33.0839 0.261233
rfingers 7.12502 -0 0
rthumb 16.989 -56.768 3.52214
2142
root -2.43349 15.2541 0.651181 -176.852 6.30732 -172.503
lfemur -52.3021 18.4528 -22.2242
ltibia 41.6721 -0 0
lfoot 9.76955 18.8092 -0.228808
ltoes 3.89218 -0 0
rfemur 1.72753 -2.33087 27.0536
rtibia 43.5471 -0 0
rfoot -20.1659 5.27707 -0.043555
rtoes -29.1146 0 0
lowerback 9.23593 1.17125 1.0673
upperback -2.23944 2.11623 3.54423
thorax -7.56055 1.13098 2.83828
lowerneck -5.61176 -1.63477 -6.01
upperneck 8.03566 -2.01394 3.72739
head 3.6805 -1.03538 2.14821
lclavicle -2.83817e-14 -4.95561e-14 -1.59751e-30
lhumerus 48.7789 -6.88824 99.154
lradius 20.6165 -0 0
lwrist -52.5269 0 0
lhand -34.6521 45.1607 -0.0475126
lfingers 7.12502 -0 0
lthumb -7.8086 74.9844 -0.0447983
rclavicle -2.83817e-14 -4.95561e-14 -1.59751e-30
rhumerus -49.7013 21.5426 -96.7694
rradius 108.773 -0 0
rwrist -87.5924 0 0
rhand -5.48983 -32.9858 0.316672
rfingers 7.12502 -0 0
rthumb 18.4215 -55.1716 4.27659
2143
root -2.40989 15.2584 0.37683 -177.253 5.58211 -172.843
lfemur -51.0691 18.0808 -22.0581
ltibia 42.1906 -0 0
lfoot 8.72199 18.9635 -0.269081
ltoes 2.80404 -0 0
rfemur 0.183126 -2.18648 26.5254
rtibia 43.9088 -0 0
rfoot -19.1413 5.24701 -0.0512186
rtoes -28.1479 0 0
lowerback 9.38782 1.11372 0.732981
upperback -2.1703 1.99269 3.49895
thorax -7.55951 1.07983 3.00246
lowerneck -5.6101 -1.75842 -6.0545
upperneck 8.25989 -2.20274 3.78096
head 3.75359 -1.1355 2.15223
lclavicle -2.76233e-14 -4.80424e-14 -1.87719e-30
lhumerus 47.9264 -7.86188 98.5792
lradius 21.9207 -0 0
lwrist -50.8959 0 0
lhand -34.4694 44.974 -0.0558334
lfingers 7.12502 -0 0
lthumb -7.63225 74.8021 -0.0526436
rclavicle -2.76233e-14 -4.80424e-14 -1.87719e-30
rhumerus -48.3195 21.4012 -95.9012
rradius 109.119 -0 0
rwrist -86.6356 0 0
rhand -3.51505 -32.8776 0.373174
rfingers 7.12502 -0 0
rthumb 19.9982 -53.4196 5.0483
2144
root -2.38464 15.263 0.0832207 -177.676 4.80341 -173.2
lfemur -49.7537 17.679 -21.89
ltibia 42.7456 -0 0
lfoot 7.60077 19.1294 -0.30905
ltoes 1.63952 -0 0
rfemur -1.47093 -2.04778 25.9562
rtibia 44.2962 -0 0
rfoot -18.0448 5.2147 -0.0588233
rtoes -27.1134 0 0
lowerback 9.55068 1.05315 0.375175
upperback -2.09621 1.86054 3.45032
thorax -7.55854 1.02507 3.1782
lowerneck -5.60821 -1.89075 -6.10213
upperneck 8.49971 -2.40503 3.83748
head 3.8318 -1.24266 2.15639
lclavicle -2.68118e-14 -4.64225e-14 -2.15431e-30
lhumerus 47.0227 -8.9131 97.9788
lradius 23.3164 -0 0
lwrist -49.1505 0 0
lhand -34.2739 44.7742 -0.0640789
lfingers 7.12502 -0 0
lthumb -7.44349 74.6069 -0.0604179
rclavicle -2.68118e-14 -4.64225e-14 -2.15431e-30
rhumerus -46.8449 21.2283 -94.9773
rradius 109.489 -0 0
rwrist -85.6117 0 0
rhand -1.40151 -32.7598 0.429473
rfingers 7.12502 -0 0
rthumb 21.7131 -51.5194 5.82016
2145
root -2.35789 15.268 -0.227812 -178.119 3.97568 -173.572
lfemur -48.3648 17.2495 -21.723
ltibia 43.3334 -0 0
lfoot 6.41289 19.3059 -0.34784
ltoes 0.405892 -0 0
rfemur -3.22442 -1.91883 25.349
rtibia 44.7063 -0 0
rfoot -16.8832 5.18032 -0.0662032
rtoes -26.0175 0 0
lowerback 9.72361 0.990105 -0.00404348
upperback -2.0176 1.72062 3.39862
thorax -7.55771 0.967051 3.36437
lowerneck -5.60609 -2.03094 -6.15259
upperneck 8.75359 -2.61958 3.89643
head 3.91466 -1.35618 2.16064
lclavicle -2.5952e-14 -4.47064e-14 -2.42284e-30
lhumerus 46.0745 -10.0367 97.3592
lradius 24.7949 -0 0
lwrist -47.3015 0 0
lhand -34.0668 44.5624 -0.0720699
lfingers 7.12502 -0 0
lthumb -7.2435 74.4001 -0.0679521
rclavicle -2.5952e-14 -4.47064e-14 -2.42284e-30
rhumerus -45.2883 21.0212 -94.0054
rradius 109.881 -0 0
rwrist -84.527 0 0
rhand 0.837584 -32.6327 0.484328
rfingers 7.12502 -0 0
rthumb 23.5594 -49.4791 6.57517
2146
root -2.3298 15.2731 -0.554435 -178.578 3.10341 -173.955
lfemur -46.9111 16.7944 -21.5598
ltibia 43.9507 -0 0
lfoot 5.16535 19.4921 -0.384626
ltoes -0.889567 0 0
rfemur -5.06703 -1.80348 24.7076
rtibia 45.1371 -0 0
rfoot -15.6633 5.14406 -0.0732011
rtoes -24.8667 0 0
lowerback 9.90564 0.92513 -0.402467
upperback -1.93492 1.57376 3.34412
thorax -7.55704 0.906125 3.55986
lowerneck -5.60373 -2.17815 -6.2056
upperneck 9.02 -2.84517 3.95733
head 4.00166 -1.4754 2.16493
lclavicle -2.50492e-14 -4.29043e-14 -2.67712e-30
lhumerus 45.0885 -11.2273 96.7265
lradius 26.3476 -0 0
lwrist -45.3598 0 0
lhand -33.8493 44.3401 -0.0796375
lfingers 7.12502 -0 0
lthumb -7.03346 74.1829 -0.0750871
rclavicle -2.50492e-14 -4.29043e-14 -2.67712e-30
rhumerus -43.6605 20.7773 -92.9932
rradius 110.292 -0 0
rwrist -83.3879 0 0
rhand 3.18905 -32.4971 0.536543
rfingers 7.12502 -0 0
rthumb 25.5292 -47.308 7.29666
2147
root -2.30053 15.2785 -0.894814 -179.05 2.19121 -174.347
lfemur -45.4013 16.3162 -21.4029
ltibia 44.5941 -0 0
lfoot 3.86513 19.687 -0.418637
ltoes -2.23959 0 0
rfemur -6.98838 -1.70528 24.0356
rtibia 45.5859 -0 0
rfoot -14.3921 5.10612 -0.0796705
rtoes -23.6674 0 0
lowerback 10.0958 0.858768 -0.817882
upperback -1.84862 1.42079 3.28712
thorax -7.55656 0.84263 3.76359
lowerneck -5.60112 -2.33156 -6.26085
upperneck 9.29754 -3.08064 4.01971
head 4.09233 -1.59965 2.1692
lclavicle -2.41084e-14 -4.10263e-14 -2.91189e-30
lhumerus 44.0707 -12.4792 96.0867
lradius 27.9656 -0 0
lwrist -43.3364 0 0
lhand -33.6225 44.1083 -0.0866252
lfingers 7.12502 -0 0
lthumb -6.81454 73.9566 -0.0816754
rclavicle -2.41084e-14 -4.10263e-14 -2.91189e-30
rhumerus -41.9722 20.4947 -91.9486
rradius 110.721 -0 0
rwrist -82.2009 0 0
rhand 5.6397 -32.3537 0.58499
rfingers 7.12502 -0 0
rthumb 27.6131 -45.0164 7.96863
2148
root -2.27024 15.2841 -1.24711 -179.532 1.24371 -174.744
lfemur -43.8439 15.8172 -21.2548
ltibia 45.2599 -0 0
lfoot 2.51926 19.8894 -0.449174
ltoes -3.63689 0 0
rfemur -8.978 -1.62741 23.3371
rtibia 46.0505 -0 0
rfoot -13.0764 5.06672 -0.0854785
rtoes -22.4261 0 0
lowerback 10.2932 0.791524 -1.24814
upperback -1.75914 1.26256 3.22787
thorax -7.5563 0.77691 3.97445
lowerneck -5.59827 -2.49034 -6.31805
upperneck 9.5845 -3.32459 4.08307
head 4.18616 -1.72826 2.17341
lclavicle -2.31345e-14 -3.90826e-14 -3.1224e-30
lhumerus 43.027 -13.7864 95.4452
lradius 29.6403 -0 0
lwrist -41.242 0 0
lhand -33.3878 43.8683 -0.0928917
lfingers 7.12502 -0 0
lthumb -6.58792 73.7223 -0.0875835
rclavicle -2.31345e-14 -3.90826e-14 -3.1224e-30
rhumerus -40.2342 20.1722 -90.8792
rradius 111.165 -0 0
rwrist -80.9723 0 0
rhand 8.17633 -32.2031 0.628625
rfingers 7.12502 -0 0
rthumb 29.8003 -42.6164 8.57605
2149
root -2.23908 15.2899 -1.6095 179.98 0.265661 -175.145
lfemur -42.2473 15.3 -21.1176
ltibia 45.9448 -0 0
lfoot 1.13475 20.0984 -0.475614
ltoes -5.0742 0 0
rfemur -11.0254 -1.57267 22.6161
rtibia 46.5285 -0 0
rfoot -11.7229 5.02605 -0.0905071
rtoes -21.1492 0 0
lowerback 10.4967 0.723914 -1.69088
upperback -1.66694 1.09989 3.16667
thorax -7.55628 0.709307 4.19134
lowerneck -5.59517 -2.65367 -6.3769
upperneck 9.87948 -3.57586 4.14698
head 4.28269 -1.86056 2.17753
lclavicle -2.21329e-14 -3.70832e-14 -3.30447e-30
lhumerus 41.9628 -15.1426 94.8073
lradius 31.363 -0 0
lwrist -39.0877 0 0
lhand -33.1463 43.6215 -0.098312
lfingers 7.12502 -0 0
lthumb -6.35479 73.4812 -0.092694
rclavicle -2.21329e-14 -3.70832e-14 -3.30447e-30
rhumerus -38.4574 19.8089 -89.793
rradius 111.622 -0 0
rwrist -79.7085 0 0
rhand 10.7857 -32.0464 0.666513
rfingers 7.12502 -0 0
rthumb 32.0785 -40.1213 9.1052
2150
root -2.20721 15.2958 -1.98014 179.487 -0.73813 -175.545
lfemur -40.6196 14.7676 -20.9931
ltibia 46.6453 -0 0
lfoot -0.281401 20.3127 -0.497427
ltoes -6.54425 0 0
rfemur -13.1199 -1.54335 21.8773
rtibia 47.0172 -0 0
rfoot -10.3387 4.98435 -0.0946552
rtoes -19.8433 0 0
lowerback 10.7054 0.656393 -2.14395
upperback -1.57245 0.933624 3.10381
thorax -7.55653 0.640164 4.41317
lowerneck -5.59183 -2.82072 -6.43711
upperneck 10.181 -3.83318 4.21102
head 4.38141 -1.99589 2.18151
lclavicle -2.11084e-14 -3.50382e-14 -3.45454e-30
lhumerus 40.8833 -16.5413 94.1776
lradius 33.1249 -0 0
lwrist -36.8844 0 0
lhand -32.8993 43.369 -0.10278
lfingers 7.12502 -0 0
lthumb -6.11632 73.2347 -0.0969062
rclavicle -2.11084e-14 -3.50382e-14 -3.45454e-30
rhumerus -36.6523 19.4048 -88.6976
rradius 112.089 -0 0
rwrist -78.4159 0 0
rhand 13.4546 -31.8845 0.697844
rfingers 7.12502 -0 0
rthumb 34.4336 -37.5458 9.54401
